<?xml version="1.0" encoding="UTF-8" ?>
<svg version="1.1" width="32" height="32" xmlns="http://www.w3.org/2000/svg" shape-rendering="crispEdges">
<rect x="31" y="1" width="1" height="3" fill="#FFFFFF" />
<rect x="30" y="2" width="1" height="4" fill="#FFFFFF" />
<rect x="28" y="3" width="2" height="4" fill="#FFFFFF" />
<rect x="27" y="4" width="1" height="7" fill="#FFFFFF" />
<rect x="26" y="5" width="1" height="7" fill="#FFFFFF" />
<rect x="23" y="6" width="3" height="7" fill="#FFFFFF" />
<rect x="22" y="7" width="1" height="11" fill="#FFFFFF" />
<rect x="28" y="7" width="1" height="1" fill="#FFFFFF" />
<rect x="21" y="8" width="1" height="8" fill="#FFFFFF" />
<rect x="20" y="9" width="1" height="7" fill="#FFFFFF" />
<rect x="17" y="10" width="3" height="7" fill="#FFFFFF" />
<rect x="16" y="11" width="1" height="9" fill="#FFFFFF" />
<rect x="15" y="12" width="1" height="10" fill="#FFFFFF" />
<rect x="14" y="13" width="1" height="10" fill="#FFFFFF" />
<rect x="23" y="13" width="2" height="1" fill="#FFFFFF" />
<rect x="13" y="14" width="1" height="10" fill="#FFFFFF" />
<rect x="23" y="14" width="1" height="3" fill="#FFFFFF" />
<rect x="12" y="15" width="1" height="10" fill="#FFFFFF" />
<rect x="8" y="16" width="4" height="1" fill="#FBF236" />
<rect x="20" y="16" width="2" height="1" fill="#CBDBFC" />
<rect x="6" y="17" width="3" height="1" fill="#FBF236" />
<rect x="9" y="17" width="3" height="9" fill="#FFFFFF" />
<rect x="17" y="17" width="2" height="1" fill="#FFFFFF" />
<rect x="19" y="17" width="2" height="1" fill="#CBDBFC" />
<rect x="21" y="17" width="1" height="2" fill="#FFFFFF" />
<rect x="4" y="18" width="3" height="1" fill="#FBF236" />
<rect x="7" y="18" width="2" height="14" fill="#FFFFFF" />
<rect x="17" y="18" width="1" height="1" fill="#FFFFFF" />
<rect x="18" y="18" width="2" height="1" fill="#CBDBFC" />
<rect x="20" y="18" width="1" height="2" fill="#FFFFFF" />
<rect x="2" y="19" width="3" height="1" fill="#FBF236" />
<rect x="5" y="19" width="2" height="13" fill="#FFFFFF" />
<rect x="17" y="19" width="2" height="1" fill="#CBDBFC" />
<rect x="19" y="19" width="1" height="2" fill="#FFFFFF" />
<rect x="0" y="20" width="3" height="1" fill="#FBF236" />
<rect x="3" y="20" width="2" height="12" fill="#FFFFFF" />
<rect x="16" y="20" width="2" height="1" fill="#CBDBFC" />
<rect x="18" y="20" width="1" height="2" fill="#FFFFFF" />
<rect x="0" y="21" width="1" height="1" fill="#FBF236" />
<rect x="1" y="21" width="2" height="11" fill="#FFFFFF" />
<rect x="16" y="21" width="1" height="1" fill="#CBDBFC" />
<rect x="17" y="21" width="1" height="2" fill="#FFFFFF" />
<rect x="0" y="22" width="1" height="10" fill="#FFFFFF" />
<rect x="15" y="22" width="1" height="1" fill="#CBDBFC" />
<rect x="16" y="22" width="1" height="2" fill="#FFFFFF" />
<rect x="14" y="23" width="1" height="1" fill="#CBDBFC" />
<rect x="15" y="23" width="1" height="4" fill="#FFFFFF" />
<rect x="13" y="24" width="1" height="1" fill="#CBDBFC" />
<rect x="14" y="24" width="1" height="5" fill="#FFFFFF" />
<rect x="12" y="25" width="1" height="1" fill="#CBDBFC" />
<rect x="13" y="25" width="1" height="5" fill="#FFFFFF" />
<rect x="9" y="26" width="2" height="1" fill="#FFFFFF" />
<rect x="11" y="26" width="1" height="1" fill="#CBDBFC" />
<rect x="12" y="26" width="1" height="5" fill="#FFFFFF" />
<rect x="9" y="27" width="1" height="5" fill="#FFFFFF" />
<rect x="10" y="27" width="1" height="1" fill="#CBDBFC" />
<rect x="11" y="27" width="1" height="5" fill="#FFFFFF" />
<rect x="10" y="28" width="1" height="4" fill="#FFFFFF" />
</svg>